HIERARCHY
ROOT Hips
{
	OFFSET 0.000000 71.427986 0.000000
	CHANNELS 6 Xposition Yposition Zposition Xrotation Yrotation Zrotation
	JOINT Pelvis
	{
		OFFSET 0.000000 0.000000 0.000000
		CHANNELS 3 Xrotation Yrotation Zrotation
		JOINT LeftUpLeg
		{
			OFFSET 6.797100 -2.508499 -1.318700
			CHANNELS 3 Xrotation Yrotation Zrotation
			JOINT LeftLeg
			{
				OFFSET 0.069008 -29.241863 0.690200
				CHANNELS 3 Xrotation Yrotation Zrotation
				JOINT LeftFoot
				{
					OFFSET -0.069008 -29.568123 -0.266800
					CHANNELS 3 Xrotation Yrotation Zrotation
					JOINT LeftToeBase
					{
						OFFSET 3.145500 -8.631000 16.059900
						CHANNELS 3 Xrotation Yrotation Zrotation
						End Site
						{
							OFFSET 0.000000 18.501587 0.000000
						}
					}
				}
			}
			JOINT Left_ShortSleeve
			{
				OFFSET 0.265923 -10.480953 1.153800
				CHANNELS 3 Xrotation Yrotation Zrotation
				End Site
				{
					OFFSET 1.725763 19.823879 0.000000
				}
			}
		}
		JOINT RightUpLeg
		{
			OFFSET -6.797100 -2.508499 -1.318700
			CHANNELS 3 Xrotation Yrotation Zrotation
			JOINT RightLeg
			{
				OFFSET -0.082453 -29.241932 0.688000
				CHANNELS 3 Xrotation Yrotation Zrotation
				JOINT RightFoot
				{
					OFFSET 0.082453 -29.568058 -0.264600
					CHANNELS 3 Xrotation Yrotation Zrotation
					JOINT RightToeBase
					{
						OFFSET -3.115300 -8.682800 16.113400
						CHANNELS 3 Xrotation Yrotation Zrotation
						End Site
						{
							OFFSET 0.000000 18.567114 0.000000
						}
					}
				}
			}
			JOINT Right_ShortSleeve
			{
				OFFSET -0.265923 -10.480953 1.153800
				CHANNELS 3 Xrotation Yrotation Zrotation
				End Site
				{
					OFFSET -1.725766 19.823910 0.000000
				}
			}
		}
	}
	JOINT Spine
	{
		OFFSET 0.000000 13.368103 0.470500
		CHANNELS 3 Xrotation Yrotation Zrotation
		JOINT Spine1
		{
			OFFSET 0.147000 13.837402 0.538800
			CHANNELS 3 Xrotation Yrotation Zrotation
			JOINT Spine2
			{
				OFFSET 0.168000 16.242897 -1.435500
				CHANNELS 3 Xrotation Yrotation Zrotation
				JOINT Neck
				{
					OFFSET 0.217200 18.631500 -1.679100
					CHANNELS 3 Xrotation Yrotation Zrotation
					JOINT Head
					{
						OFFSET 0.000000 6.599396 1.385900
						CHANNELS 3 Xrotation Yrotation Zrotation
						JOINT Hat
						{
							OFFSET -0.532200 27.220596 -10.096100
							CHANNELS 3 Xrotation Yrotation Zrotation
							End Site
							{
								OFFSET 0.000000 22.029861 0.000000
							}
						}
						JOINT HairD
						{
							OFFSET -10.777400 17.437393 -1.325900
							CHANNELS 3 Xrotation Yrotation Zrotation
							JOINT HairD1
							{
								OFFSET -3.290299 -11.051193 1.062200
								CHANNELS 3 Xrotation Yrotation Zrotation
								End Site
								{
									OFFSET 0.000000 11.579437 0.000000
								}
							}
						}
						JOINT HairB
						{
							OFFSET -10.777400 17.437393 1.467900
							CHANNELS 3 Xrotation Yrotation Zrotation
							JOINT HairB1
							{
								OFFSET -1.561200 -12.956299 3.590200
								CHANNELS 3 Xrotation Yrotation Zrotation
								End Site
								{
									OFFSET 0.000000 13.534866 0.000000
								}
							}
						}
						JOINT HairA
						{
							OFFSET 9.713100 17.437393 1.467900
							CHANNELS 3 Xrotation Yrotation Zrotation
							JOINT HairA1
							{
								OFFSET 1.561200 -12.956299 3.590200
								CHANNELS 3 Xrotation Yrotation Zrotation
								End Site
								{
									OFFSET 0.000000 13.534866 0.000000
								}
							}
						}
						JOINT HairC
						{
							OFFSET 9.713100 17.437393 -1.325900
							CHANNELS 3 Xrotation Yrotation Zrotation
							JOINT HairC1
							{
								OFFSET 3.290300 -11.051193 1.062200
								CHANNELS 3 Xrotation Yrotation Zrotation
								End Site
								{
									OFFSET 0.000000 11.579437 0.000000
								}
							}
						}
					}
				}
				JOINT LeftShoulder
				{
					OFFSET 5.101800 15.108002 -2.763700
					CHANNELS 3 Xrotation Yrotation Zrotation
					JOINT LeftArm
					{
						OFFSET 9.825497 2.506317 -1.597400
						CHANNELS 3 Xrotation Yrotation Zrotation
						JOINT LeftForeArm
						{
							OFFSET 21.966244 0.000000 0.000000
							CHANNELS 3 Xrotation Yrotation Zrotation
							JOINT LeftHand
							{
								OFFSET 33.879036 0.000000 0.000000
								CHANNELS 3 Xrotation Yrotation Zrotation
								JOINT LeftHandThumb1
								{
									OFFSET 6.715286 -2.359680 3.363841
									CHANNELS 3 Xrotation Yrotation Zrotation
									JOINT LeftHandThumb2
									{
										OFFSET 2.507072 -1.447464 1.447461
										CHANNELS 3 Xrotation Yrotation Zrotation
										JOINT LeftHandThumb3
										{
											OFFSET 2.898338 -1.673355 1.673357
											CHANNELS 3 Xrotation Yrotation Zrotation
											End Site
											{
												OFFSET -0.295959 3.727692 -0.131651
											}
										}
									}
								}
								JOINT LeftHandIndex1
								{
									OFFSET 14.190811 -0.254547 3.840278
									CHANNELS 3 Xrotation Yrotation Zrotation
									JOINT LeftHandIndex2
									{
										OFFSET 3.551727 0.000000 -0.000000
										CHANNELS 3 Xrotation Yrotation Zrotation
										JOINT LeftHandIndex3
										{
											OFFSET 2.894196 0.000000 0.000000
											CHANNELS 3 Xrotation Yrotation Zrotation
											End Site
											{
												OFFSET -1.000603 2.690872 0.366626
											}
										}
									}
								}
								JOINT LeftHandMiddle1
								{
									OFFSET 13.776489 0.000000 0.000000
									CHANNELS 3 Xrotation Yrotation Zrotation
									JOINT LeftHandMiddle2
									{
										OFFSET 3.438232 0.000000 0.000000
										CHANNELS 3 Xrotation Yrotation Zrotation
										JOINT LeftHandMiddle3
										{
											OFFSET 3.691551 0.000000 0.000000
											CHANNELS 3 Xrotation Yrotation Zrotation
											End Site
											{
												OFFSET -1.082298 3.499527 0.457670
											}
										}
									}
								}
								JOINT LeftHandRing1
								{
									OFFSET 13.966164 -0.268127 -3.067488
									CHANNELS 3 Xrotation Yrotation Zrotation
									JOINT LeftHandRing2
									{
										OFFSET 3.162567 0.000000 0.000000
										CHANNELS 3 Xrotation Yrotation Zrotation
										JOINT LeftHandRing3
										{
											OFFSET 3.324348 0.000000 0.000000
											CHANNELS 3 Xrotation Yrotation Zrotation
											End Site
											{
												OFFSET -0.861900 3.184998 0.405154
											}
										}
									}
								}
								JOINT LeftHandPinky1
								{
									OFFSET 13.131393 -0.168503 -5.746925
									CHANNELS 3 Xrotation Yrotation Zrotation
									JOINT LeftHandPinky2
									{
										OFFSET 2.849182 0.000000 0.000000
										CHANNELS 3 Xrotation Yrotation Zrotation
										JOINT LeftHandPinky3
										{
											OFFSET 2.805038 0.000000 0.000000
											CHANNELS 3 Xrotation Yrotation Zrotation
											End Site
											{
												OFFSET -0.882500 2.642609 0.325652
											}
										}
									}
								}
							}
							JOINT Left_Sleeve
							{
								OFFSET 6.592125 -0.646545 0.805568
								CHANNELS 3 Xrotation Yrotation Zrotation
								End Site
								{
									OFFSET -0.000179 20.275787 -0.000000
								}
							}
						}
					}
				}
				JOINT RightShoulder
				{
					OFFSET -5.731700 15.108002 -2.763700
					CHANNELS 3 Xrotation Yrotation Zrotation
					JOINT RightArm
					{
						OFFSET -9.825497 2.506317 -1.597400
						CHANNELS 3 Xrotation Yrotation Zrotation
						JOINT RightForeArm
						{
							OFFSET -21.966242 0.000000 0.000000
							CHANNELS 3 Xrotation Yrotation Zrotation
							JOINT RightHand
							{
								OFFSET -33.879032 0.000000 0.000000
								CHANNELS 3 Xrotation Yrotation Zrotation
								JOINT RightHandThumb1
								{
									OFFSET -6.715286 -2.359680 3.363841
									CHANNELS 3 Xrotation Yrotation Zrotation
									JOINT RightHandThumb2
									{
										OFFSET -2.507072 -1.447464 1.447461
										CHANNELS 3 Xrotation Yrotation Zrotation
										JOINT RightHandThumb3
										{
											OFFSET -2.898338 -1.673355 1.673357
											CHANNELS 3 Xrotation Yrotation Zrotation
											End Site
											{
												OFFSET 0.295959 3.727692 -0.131651
											}
										}
									}
								}
								JOINT RightHandIndex1
								{
									OFFSET -14.190811 -0.254547 3.840278
									CHANNELS 3 Xrotation Yrotation Zrotation
									JOINT RightHandIndex2
									{
										OFFSET -3.551727 0.000000 -0.000000
										CHANNELS 3 Xrotation Yrotation Zrotation
										JOINT RightHandIndex3
										{
											OFFSET -2.894196 0.000000 0.000000
											CHANNELS 3 Xrotation Yrotation Zrotation
											End Site
											{
												OFFSET 1.000603 2.690872 0.366626
											}
										}
									}
								}
								JOINT RightHandMiddle1
								{
									OFFSET -13.776489 0.000000 0.000000
									CHANNELS 3 Xrotation Yrotation Zrotation
									JOINT RightHandMiddle2
									{
										OFFSET -3.438232 0.000000 0.000000
										CHANNELS 3 Xrotation Yrotation Zrotation
										JOINT RightHandMiddle3
										{
											OFFSET -3.691551 0.000000 0.000000
											CHANNELS 3 Xrotation Yrotation Zrotation
											End Site
											{
												OFFSET 1.082298 3.499527 0.457670
											}
										}
									}
								}
								JOINT RightHandRing1
								{
									OFFSET -13.966164 -0.268127 -3.067488
									CHANNELS 3 Xrotation Yrotation Zrotation
									JOINT RightHandRing2
									{
										OFFSET -3.162567 0.000000 0.000000
										CHANNELS 3 Xrotation Yrotation Zrotation
										JOINT RightHandRing3
										{
											OFFSET -3.324348 0.000000 0.000000
											CHANNELS 3 Xrotation Yrotation Zrotation
											End Site
											{
												OFFSET 0.861900 3.184998 0.405154
											}
										}
									}
								}
								JOINT RightHandPinky1
								{
									OFFSET -13.131393 -0.168503 -5.746925
									CHANNELS 3 Xrotation Yrotation Zrotation
									JOINT RightHandPinky2
									{
										OFFSET -2.849182 0.000000 0.000000
										CHANNELS 3 Xrotation Yrotation Zrotation
										JOINT RightHandPinky3
										{
											OFFSET -2.805038 0.000000 0.000000
											CHANNELS 3 Xrotation Yrotation Zrotation
											End Site
											{
												OFFSET 0.882500 2.642609 0.325652
											}
										}
									}
								}
							}
							JOINT Right_Sleeve
							{
								OFFSET -6.592125 -0.646545 0.805568
								CHANNELS 3 Xrotation Yrotation Zrotation
								End Site
								{
									OFFSET 0.000179 20.275787 -0.000000
								}
							}
						}
					}
				}
				JOINT Bind_Right_JacketString
				{
					OFFSET -3.534800 11.969597 7.200700
					CHANNELS 3 Xrotation Yrotation Zrotation
					JOINT Bind_Right_JacketString1
					{
						OFFSET -0.319900 -6.102600 2.794100
						CHANNELS 3 Xrotation Yrotation Zrotation
						End Site
						{
							OFFSET 0.000000 6.719452 0.000000
						}
					}
				}
				JOINT Bind_Left_JacketString
				{
					OFFSET 2.904800 11.969597 7.200700
					CHANNELS 3 Xrotation Yrotation Zrotation
					JOINT Bind_Left_JacketString1
					{
						OFFSET 0.364800 -5.904503 3.186800
						CHANNELS 3 Xrotation Yrotation Zrotation
						End Site
						{
							OFFSET 0.000000 6.719513 0.000000
						}
					}
				}
				JOINT HairE
				{
					OFFSET 5.915200 17.612701 -11.592200
					CHANNELS 3 Xrotation Yrotation Zrotation
					JOINT HairE1
					{
						OFFSET 0.289200 -7.171898 -1.284500
						CHANNELS 3 Xrotation Yrotation Zrotation
						End Site
						{
							OFFSET 0.000000 7.291756 0.000000
						}
					}
				}
				JOINT HairF
				{
					OFFSET -0.864800 17.612701 -11.592200
					CHANNELS 3 Xrotation Yrotation Zrotation
					JOINT HairF1
					{
						OFFSET 0.000000 -14.087097 -2.127501
						CHANNELS 3 Xrotation Yrotation Zrotation
						End Site
						{
							OFFSET 0.000000 14.246841 0.000000
						}
					}
				}
				JOINT HairG
				{
					OFFSET -8.087700 17.612701 -11.592200
					CHANNELS 3 Xrotation Yrotation Zrotation
					JOINT HairG1
					{
						OFFSET -0.293600 -6.081398 -0.910100
						CHANNELS 3 Xrotation Yrotation Zrotation
						End Site
						{
							OFFSET 0.000000 6.156120 0.000000
						}
					}
				}
			}
		}
	}
	JOINT Pouch
	{
		OFFSET 0.000000 4.394501 10.847300
		CHANNELS 3 Xrotation Yrotation Zrotation
		End Site
		{
			OFFSET 0.000000 21.880577 0.000000
		}
	}
	JOINT Bag
	{
		OFFSET -13.229000 4.813004 -0.593300
		CHANNELS 3 Xrotation Yrotation Zrotation
		End Site
		{
			OFFSET 0.000000 21.880577 0.000000
		}
	}
	JOINT OccupyGuyFacialAnim_Joint
	{
		OFFSET 1.000000 -70.206398 -1.655000
		CHANNELS 3 Xrotation Yrotation Zrotation
		End Site
		{
			OFFSET 0.000000 21.880577 0.000000
		}
	}
}
MOTION
Frames: 4
Frame Time: 0.016667
-8.360391 60.640831 3.676284 5.755887 -41.236932 12.573291 -0.000000 0.000001 0.000001 -49.984243 33.945074 36.329073 41.169174 -28.474639 2.414521 -3.186042 2.156205 -13.148533 0.000000 0.000000 0.000000 -0.000002 -0.000000 0.000000 -20.053067 -8.895419 -29.098949 55.031712 1.245976 -6.970892 -40.186415 -7.161874 21.685577 0.000000 0.000000 0.000000 0.000002 0.000002 0.000001 17.909070 -5.908164 2.913097 28.909025 -4.182644 -1.799677 17.801749 -2.616842 -3.497790 3.925433 -0.806459 17.439382 7.730324 1.255954 -11.559181 0.000000 0.000000 -0.000002 0.000000 0.000000 -0.000002 0.000000 0.000000 -0.000000 0.000000 0.000000 -0.000002 0.000000 0.000000 -0.000002 0.000000 0.000000 -0.000002 0.000000 0.000000 -0.000002 0.000000 0.000000 -0.000002 0.000000 0.000000 -0.000002 2.354292 -30.783096 2.356254 -34.242826 -26.233529 -29.291423 -7.515778 -26.361387 1.290824 6.941817 -20.603911 5.351089 16.254358 -11.504909 21.549247 4.507362 18.475126 -9.635932 0.000000 -0.000001 -0.000002 1.539047 -3.432151 14.456410 -0.180769 -1.247016 -29.044123 0.000001 -0.000002 -0.000002 1.659189 1.542436 -11.529122 0.180728 -1.715844 -25.398308 0.000005 -0.000001 -0.000001 -0.041062 5.351810 -28.839883 -0.820804 -0.913418 -27.616164 0.000001 0.000003 -0.000002 0.111644 11.221145 -18.652984 -0.848712 -0.437670 -22.689940 -0.000001 -0.000002 -0.000001 0.000001 -0.000003 0.000003 -0.512601 12.805418 24.404310 -20.406271 -19.745800 20.483674 -21.210859 81.262872 19.903069 -23.264555 11.560920 8.425375 55.149546 18.649511 -29.698264 -0.442525 -14.180584 7.313154 0.000001 -0.000002 0.000002 5.673416 7.585003 36.844147 1.050456 3.824559 68.900250 -0.000000 0.000001 0.000004 -0.125705 1.886068 45.000766 -1.168986 3.204682 68.417636 0.000004 0.000002 -0.000002 -5.312000 1.216665 58.508807 -0.745219 1.667571 48.011292 -0.000004 0.000003 -0.000001 -7.756802 -9.376480 47.263990 -0.526016 1.541603 45.600522 0.000001 -0.000002 0.000000 0.000001 -0.000000 -0.000002 -0.000000 -0.000000 0.000000 -0.000000 0.000001 -0.000002 -0.000000 -0.000000 0.000000 -0.000000 -0.000000 0.000000 -0.000000 -0.000000 0.000000 -0.000000 0.000001 -0.000001 -0.000000 -0.000000 0.000000 -0.000000 -0.000000 0.000000 -0.000000 -0.000000 0.000000 -0.000000 0.000001 -0.000001 -0.000000 0.000001 0.000001 -0.000000 0.000001 0.000001 -0.000000 0.000001 0.000001 
-8.055698 60.810951 3.757818 4.216524 -40.693669 11.095190 0.000000 -0.000003 -0.000001 -49.595414 34.073546 36.524102 41.208471 -28.650212 2.406799 -2.948971 1.332260 -12.505884 0.000000 0.000002 -0.000000 -0.000001 0.000001 -0.000000 -18.510018 -9.677284 -28.911255 54.034405 1.107436 -6.910335 -39.540399 -7.256205 21.947534 -0.000000 -0.000002 0.000000 0.000001 0.000005 -0.000000 17.686751 -5.785605 2.841039 28.357200 -3.983570 -2.018755 17.259820 -2.365351 -3.582338 3.399029 0.434956 18.470310 8.197278 1.394240 -12.300079 -0.000000 -0.000000 0.000001 -0.000000 -0.000000 0.000001 -0.000000 -0.000000 0.000003 -0.000000 -0.000000 0.000002 -0.000001 -0.000000 0.000002 -0.000000 -0.000000 0.000002 -0.000001 -0.000000 0.000002 -0.000000 -0.000000 0.000001 -0.000000 -0.000000 0.000001 2.328593 -30.676876 2.585273 -33.628833 -25.347537 -29.746512 -7.805160 -23.996575 1.221968 7.439366 -16.511998 6.913803 16.348015 -10.644453 20.290665 4.173231 18.061315 -9.539052 0.000000 0.000002 -0.000001 -0.027715 -3.469725 16.408548 -0.157413 -1.203773 -27.954899 -0.000002 -0.000000 -0.000000 1.407615 2.022316 -8.664059 0.274520 -1.534064 -22.087517 0.000003 0.000004 -0.000000 0.329455 4.603372 -25.951954 -0.773386 -0.788247 -24.421528 -0.000001 0.000003 0.000001 1.291750 9.409258 -14.825721 -0.832739 -0.348403 -20.341063 -0.000003 0.000001 -0.000001 0.000000 -0.000001 0.000000 -0.608443 13.107895 25.085215 -20.872677 -20.553217 19.261007 -11.667263 82.321347 10.693728 -23.900121 9.732267 8.487059 55.149553 18.649514 -29.698257 -0.442522 -14.180589 7.313148 0.000001 0.000004 0.000002 5.673419 7.585001 36.844151 1.050455 3.824562 68.900250 -0.000004 0.000001 0.000000 -0.125705 1.886075 45.000770 -1.168985 3.204681 68.417636 0.000005 0.000003 -0.000004 -5.311997 1.216665 58.508801 -0.745223 1.667566 48.011292 0.000005 0.000001 -0.000000 -7.756803 -9.376477 47.263994 -0.526023 1.541604 45.600518 -0.000003 0.000004 -0.000002 0.000002 0.000001 0.000000 -0.000002 -0.000001 0.000002 -0.000000 0.000000 -0.000000 -0.000002 -0.000001 0.000002 -0.000002 -0.000001 0.000002 -0.000002 -0.000001 0.000002 -0.000000 0.000000 -0.000000 -0.000002 -0.000001 0.000002 -0.000002 -0.000001 0.000002 -0.000002 -0.000001 0.000002 -0.000000 0.000000 -0.000000 0.000000 -0.000003 -0.000001 0.000000 -0.000003 -0.000001 0.000000 -0.000003 -0.000001 
-7.768357 60.953468 3.852558 2.993201 -39.957843 9.802437 0.000000 0.000001 -0.000000 -49.516918 34.117451 36.737665 41.342893 -28.854551 2.405441 -2.723390 0.461189 -11.833304 0.000000 0.000000 0.000000 0.000005 -0.000001 -0.000000 -17.059507 -10.407694 -28.569865 53.043973 0.859718 -6.857205 -38.927372 -7.510256 22.226450 -0.000000 -0.000003 0.000000 -0.000000 -0.000004 -0.000000 17.486225 -5.584860 2.916606 27.805760 -3.750690 -1.987550 16.722217 -2.190758 -3.347004 2.348156 1.128150 18.345323 8.178889 1.108632 -12.085777 0.000000 -0.000000 0.000001 0.000000 -0.000000 0.000001 0.000000 -0.000000 0.000002 0.000000 -0.000000 0.000001 0.000000 0.000000 -0.000001 0.000000 -0.000000 0.000001 0.000000 0.000000 -0.000001 0.000000 -0.000000 0.000001 0.000000 -0.000000 0.000001 2.242998 -30.396220 2.625588 -33.029190 -24.760044 -30.398133 -7.945702 -22.391708 0.965502 6.968103 -14.661035 7.619782 16.520322 -10.013502 19.194239 3.726983 17.497778 -9.405223 0.000001 -0.000000 -0.000003 -1.121916 -3.629193 17.132785 -0.125503 -1.141309 -26.402322 0.000001 0.000000 0.000002 1.251175 2.428148 -6.762190 0.341900 -1.385020 -19.439914 0.000001 0.000001 0.000001 0.442698 4.444511 -23.821680 -0.734572 -0.666209 -21.365050 0.000000 0.000001 0.000001 2.196501 8.467056 -11.623423 -0.821255 -0.265653 -18.176552 -0.000000 -0.000001 0.000003 0.000002 -0.000001 -0.000001 -0.501986 12.543238 24.284784 -20.300868 -21.057209 19.750085 -3.535543 83.023934 2.884408 -24.115018 8.786016 8.308352 55.149556 18.649512 -29.698267 -0.442523 -14.180588 7.313147 -0.000001 0.000000 -0.000000 5.673419 7.585004 36.844144 1.050456 3.824556 68.900250 -0.000001 -0.000001 0.000004 -0.125700 1.886071 45.000766 -1.168980 3.204678 68.417636 0.000004 -0.000000 0.000001 -5.311995 1.216668 58.508807 -0.745220 1.667571 48.011288 0.000000 -0.000001 -0.000000 -7.756797 -9.376479 47.263994 -0.526017 1.541605 45.600522 0.000003 0.000002 0.000001 0.000001 0.000001 -0.000003 -0.000001 -0.000001 0.000002 -0.000001 0.000000 -0.000000 -0.000001 -0.000001 0.000002 -0.000001 -0.000001 0.000002 -0.000001 -0.000001 0.000002 -0.000001 0.000000 0.000000 -0.000001 -0.000001 0.000002 -0.000001 -0.000001 0.000002 -0.000001 -0.000001 0.000002 -0.000001 0.000000 0.000000 0.000000 0.000001 -0.000000 0.000000 0.000001 -0.000000 0.000000 0.000001 -0.000000 
-7.478962 61.091087 3.949903 1.917367 -39.107105 8.653483 0.000000 -0.000000 -0.000000 -49.501297 34.171286 36.867910 41.451148 -29.058623 2.401897 -2.463475 -0.439351 -11.145799 0.000000 0.000002 -0.000000 0.000003 -0.000001 0.000001 -15.642470 -11.111921 -28.202121 52.033348 0.562861 -6.804728 -38.305968 -7.836472 22.516504 0.000000 -0.000002 -0.000000 -0.000000 0.000000 -0.000001 17.256263 -5.389656 2.970114 27.212088 -3.554401 -1.949095 16.129917 -2.065768 -3.134688 1.254574 1.689143 17.729137 7.834703 0.608339 -11.472245 -0.000001 0.000000 -0.000001 -0.000001 0.000000 -0.000001 -0.000001 0.000000 -0.000000 -0.000001 0.000000 -0.000001 -0.000001 0.000000 -0.000001 -0.000001 0.000000 -0.000001 -0.000001 0.000000 -0.000001 -0.000001 0.000000 -0.000001 -0.000001 0.000000 -0.000001 2.180222 -30.084695 2.687295 -32.508941 -24.092760 -31.048158 -8.013993 -21.085965 0.699052 6.449172 -13.147119 7.884986 16.823169 -9.647898 18.086860 3.016010 16.587719 -9.197016 -0.000000 0.000001 0.000002 -1.666538 -3.856561 16.343915 -0.080191 -1.044534 -24.034988 -0.000000 0.000002 -0.000003 1.220572 2.798710 -5.837808 0.392846 -1.258179 -17.228425 0.000003 -0.000001 -0.000001 0.086345 5.042117 -22.266478 -0.697793 -0.522225 -17.818266 -0.000001 0.000001 -0.000002 2.680533 8.471286 -8.438551 -0.812047 -0.171814 -15.734273 -0.000000 -0.000003 0.000001 0.000001 0.000001 0.000000 -0.531455 12.423651 23.593309 -19.558414 -22.044729 20.084113 3.473632 83.560234 -3.940345 -24.470170 8.375671 8.315539 55.149556 18.649514 -29.698253 -0.442524 -14.180586 7.313152 -0.000000 -0.000001 -0.000002 5.673416 7.584999 36.844151 1.050455 3.824554 68.900250 -0.000003 -0.000000 -0.000002 -0.125706 1.886069 45.000766 -1.168985 3.204679 68.417636 0.000002 0.000000 -0.000001 -5.312002 1.216664 58.508807 -0.745220 1.667569 48.011288 0.000005 0.000003 -0.000003 -7.756797 -9.376483 47.263990 -0.526017 1.541605 45.600518 0.000003 -0.000001 0.000000 0.000000 -0.000000 0.000001 0.000001 0.000000 0.000000 0.000001 0.000000 0.000000 0.000001 0.000000 0.000000 0.000001 0.000000 0.000000 0.000001 0.000000 0.000000 0.000001 0.000000 0.000000 0.000001 0.000000 0.000000 0.000001 0.000000 0.000000 0.000001 0.000000 0.000000 0.000001 0.000000 0.000000 0.000000 -0.000000 -0.000000 0.000000 -0.000000 -0.000000 0.000000 -0.000000 -0.000000 
